<svg xmlns="http://www.w3.org/2000/svg" version="1.1" xmlns:xlink="http://www.w3.org/1999/xlink" xmlns:svgjs="http://svgjs.dev/svgjs" width="765" height="625" viewBox="0 0 340.15198974609376 300" class="svg-animations " style="background: rgb(255, 255, 255);"><svg viewBox="0 0 133.99343872070312 139.00491333007812" width="80" height="80" fill="#000000" x="28.345999145507818" y="110"><svg width="134" height="134" viewBox="0 0 134 134" xmlns="http://www.w3.org/2000/svg">
	<path d="M72.0461 0.181957C32.836 -2.70327 0 28.3823 0 67.0009C0 73.713 1.00198 80.1836 2.84901 86.292C11.1546 113.865 36.7595 134.001 67 134.001C95.5142 134.001 119.9 116.086 129.557 90.9398C133.143 81.5839 134.724 71.2382 133.674 60.4216C130.559 28.2012 104.339 2.57223 72.0461 0.181957ZM5.37207 83.7811C3.91135 78.4331 3.12667 72.8075 3.12667 67.0009C3.12667 30.4708 33.9346 1.01493 70.9355 3.23619C101.876 5.09529 127.288 29.4447 130.535 60.2647C131.441 68.872 130.572 77.1535 128.326 84.8555L79.2411 35.7825L46.0187 68.9928L33.0775 56.0636L5.37207 83.7811Z"></path>
	</svg></svg><svg fill="#000000" x="118.34599914550782" y="126.47500038146973"><path d="M12.84 38.41L12.84 38.41Q20.75 38.41 20.75 33.00L20.75 33.00Q20.75 31.34 20.05 30.17Q19.34 29 18.15 28.14Q16.95 27.28 15.42 26.66Q13.88 26.04 12.17 25.41L12.17 25.41Q10.19 24.74 8.42 23.88Q6.66 23.02 5.36 21.85Q4.06 20.68 3.30 19.07Q2.55 17.46 2.55 15.17L2.55 15.17Q2.55 10.44 5.77 7.78Q9.00 5.13 14.66 5.13L14.66 5.13Q17.94 5.13 20.62 5.83Q23.30 6.54 24.54 7.37L24.54 7.37L22.93 11.48Q21.84 10.80 19.68 10.15Q17.52 9.50 14.66 9.50L14.66 9.50Q13.21 9.50 11.96 9.81Q10.71 10.12 9.78 10.75Q8.84 11.37 8.29 12.33Q7.75 13.30 7.75 14.60L7.75 14.60Q7.75 16.05 8.32 17.04Q8.89 18.03 9.93 18.78Q10.97 19.54 12.35 20.16Q13.73 20.78 15.39 21.41L15.39 21.41Q17.73 22.34 19.68 23.28Q21.63 24.22 23.06 25.52Q24.49 26.82 25.27 28.61Q26.05 30.40 26.05 32.95L26.05 32.95Q26.05 37.68 22.59 40.23Q19.14 42.78 12.84 42.78L12.84 42.78Q10.71 42.78 8.92 42.49Q7.12 42.21 5.72 41.82Q4.32 41.43 3.30 40.99Q2.29 40.54 1.72 40.23L1.72 40.23L3.22 36.07Q4.42 36.75 6.86 37.58Q9.31 38.41 12.84 38.41ZM53.35 14.96L53.35 41.22Q51.69 41.64 48.96 42.10Q46.23 42.57 42.64 42.57L42.64 42.57Q39.52 42.57 37.39 41.66Q35.26 40.75 33.96 39.09Q32.66 37.42 32.08 35.16Q31.51 32.90 31.51 30.14L31.51 30.14L31.51 14.96L36.35 14.96L36.35 29.10Q36.35 34.04 37.91 36.18Q39.47 38.31 43.16 38.31L43.16 38.31Q43.94 38.31 44.77 38.26Q45.60 38.20 46.33 38.13Q47.06 38.05 47.66 37.97Q48.26 37.89 48.52 37.79L48.52 37.79L48.52 14.96L53.35 14.96ZM61.67 42L61.67 15.74Q63.34 15.32 66.07 14.86Q68.80 14.39 72.38 14.39L72.38 14.39Q74.98 14.39 76.75 15.09Q78.52 15.79 79.72 17.14L79.72 17.14Q80.08 16.88 80.86 16.42Q81.64 15.95 82.78 15.51Q83.93 15.06 85.33 14.73Q86.74 14.39 88.35 14.39L88.35 14.39Q91.47 14.39 93.44 15.30Q95.42 16.21 96.54 17.87Q97.66 19.54 98.05 21.82Q98.44 24.11 98.44 26.82L98.44 26.82L98.44 42L93.60 42L93.60 27.86Q93.60 25.46 93.37 23.75Q93.13 22.03 92.48 20.89Q91.83 19.74 90.71 19.20Q89.60 18.65 87.83 18.65L87.83 18.65Q85.38 18.65 83.80 19.30Q82.21 19.95 81.64 20.47L81.64 20.47Q82.06 21.82 82.26 23.44Q82.47 25.05 82.47 26.82L82.47 26.82L82.47 42L77.64 42L77.64 27.86Q77.64 25.46 77.38 23.75Q77.12 22.03 76.47 20.89Q75.82 19.74 74.70 19.20Q73.58 18.65 71.86 18.65L71.86 18.65Q71.14 18.65 70.30 18.70Q69.47 18.76 68.72 18.83Q67.96 18.91 67.34 19.02Q66.72 19.12 66.51 19.17L66.51 19.17L66.51 42L61.67 42ZM106.44 42L106.44 15.74Q108.11 15.32 110.84 14.86Q113.57 14.39 117.16 14.39L117.16 14.39Q119.76 14.39 121.52 15.09Q123.29 15.79 124.49 17.14L124.49 17.14Q124.85 16.88 125.63 16.42Q126.41 15.95 127.56 15.51Q128.70 15.06 130.10 14.73Q131.51 14.39 133.12 14.39L133.12 14.39Q136.24 14.39 138.22 15.30Q140.19 16.21 141.31 17.87Q142.43 19.54 142.82 21.82Q143.21 24.11 143.21 26.82L143.21 26.82L143.21 42L138.37 42L138.37 27.86Q138.37 25.46 138.14 23.75Q137.90 22.03 137.25 20.89Q136.60 19.74 135.49 19.20Q134.37 18.65 132.60 18.65L132.60 18.65Q130.16 18.65 128.57 19.30Q126.98 19.95 126.41 20.47L126.41 20.47Q126.83 21.82 127.04 23.44Q127.24 25.05 127.24 26.82L127.24 26.82L127.24 42L122.41 42L122.41 27.86Q122.41 25.46 122.15 23.75Q121.89 22.03 121.24 20.89Q120.59 19.74 119.47 19.20Q118.35 18.65 116.64 18.65L116.64 18.65Q115.91 18.65 115.08 18.70Q114.24 18.76 113.49 18.83Q112.74 18.91 112.11 19.02Q111.49 19.12 111.28 19.17L111.28 19.17L111.28 42L106.44 42ZM156.05 14.96L156.05 42L151.22 42L151.22 14.96L156.05 14.96ZM153.61 10.07L153.61 10.07Q152.31 10.07 151.40 9.21Q150.49 8.36 150.49 6.90L150.49 6.90Q150.49 5.44 151.40 4.59Q152.31 3.73 153.61 3.73L153.61 3.73Q154.91 3.73 155.82 4.59Q156.73 5.44 156.73 6.90L156.73 6.90Q156.73 8.36 155.82 9.21Q154.91 10.07 153.61 10.07ZM168.90 6.59L168.90 14.96L179.14 14.96L179.14 19.02L168.90 19.02L168.90 31.50Q168.90 33.52 169.21 34.85Q169.52 36.18 170.14 36.93Q170.77 37.68 171.70 38.00Q172.64 38.31 173.89 38.31L173.89 38.31Q176.07 38.31 177.40 37.81Q178.72 37.32 179.24 37.11L179.24 37.11L180.18 41.12Q179.45 41.48 177.63 42.03Q175.81 42.57 173.47 42.57L173.47 42.57Q170.72 42.57 168.92 41.87Q167.13 41.17 166.04 39.76Q164.94 38.36 164.50 36.31Q164.06 34.25 164.06 31.55L164.06 31.55L164.06 7.42L168.90 6.59Z"></path></svg><svg fill="#32456b" x="125.17098846435547" y="173.52499961853027"><path d="M9.82 6.79L9.82 6.79Q9.82 8.14 9.40 9.14Q8.98 10.14 8.22 10.79Q7.46 11.45 6.39 11.77Q5.33 12.09 4.05 12.09L4.05 12.09Q3.42 12.09 2.66 12.04Q1.91 11.98 1.29 11.84L1.29 11.84L1.29 1.76Q1.91 1.61 2.66 1.55Q3.42 1.50 4.05 1.50L4.05 1.50Q5.33 1.50 6.39 1.82Q7.46 2.14 8.22 2.80Q8.98 3.45 9.40 4.45Q9.82 5.45 9.82 6.79ZM4.17 10.81L4.17 10.81Q6.24 10.81 7.26 9.76Q8.28 8.70 8.28 6.79L8.28 6.79Q8.28 4.89 7.26 3.83Q6.24 2.78 4.17 2.78L4.17 2.78Q3.55 2.78 3.22 2.79Q2.88 2.80 2.75 2.82L2.75 2.82L2.75 10.77Q2.88 10.79 3.22 10.80Q3.55 10.81 4.17 10.81ZM11.46 8.12L11.46 8.12Q11.46 7.08 11.76 6.31Q12.06 5.54 12.55 5.03Q13.05 4.52 13.70 4.26Q14.34 4.00 15.02 4.00L15.02 4.00Q16.59 4.00 17.43 4.99Q18.27 5.97 18.27 7.98L18.27 7.98Q18.27 8.07 18.27 8.21Q18.27 8.36 18.25 8.47L18.25 8.47L12.91 8.47Q13.01 9.69 13.62 10.32Q14.23 10.95 15.54 10.95L15.54 10.95Q16.27 10.95 16.78 10.82Q17.28 10.70 17.54 10.57L17.54 10.57L17.73 11.74Q17.48 11.88 16.84 12.03Q16.20 12.18 15.39 12.18L15.39 12.18Q14.37 12.18 13.63 11.87Q12.88 11.56 12.41 11.03Q11.93 10.48 11.69 9.74Q11.46 9 11.46 8.12ZM12.95 7.35L16.82 7.35Q16.83 6.41 16.34 5.80Q15.86 5.19 15 5.19L15 5.19Q14.52 5.19 14.15 5.38Q13.79 5.57 13.53 5.87Q13.28 6.17 13.13 6.56Q12.99 6.95 12.95 7.35L12.95 7.35ZM24.93 4.20L26.37 4.20Q25.78 6.39 25.00 8.40Q24.21 10.41 23.47 12L23.47 12L22.21 12Q21.48 10.41 20.69 8.40Q19.90 6.39 19.32 4.20L19.32 4.20L20.82 4.20Q21 4.94 21.25 5.77Q21.49 6.60 21.77 7.42Q22.05 8.23 22.33 9Q22.62 9.77 22.88 10.37L22.88 10.37Q23.13 9.77 23.41 9Q23.70 8.23 23.98 7.42Q24.25 6.60 24.50 5.77Q24.75 4.94 24.93 4.20L24.93 4.20ZM27.16 8.12L27.16 8.12Q27.16 7.08 27.46 6.31Q27.76 5.54 28.26 5.03Q28.75 4.52 29.40 4.26Q30.04 4.00 30.72 4.00L30.72 4.00Q32.30 4.00 33.13 4.99Q33.97 5.97 33.97 7.98L33.97 7.98Q33.97 8.07 33.97 8.21Q33.97 8.36 33.96 8.47L33.96 8.47L28.62 8.47Q28.71 9.69 29.32 10.32Q29.94 10.95 31.24 10.95L31.24 10.95Q31.98 10.95 32.48 10.82Q32.98 10.70 33.24 10.57L33.24 10.57L33.44 11.74Q33.18 11.88 32.54 12.03Q31.90 12.18 31.09 12.18L31.09 12.18Q30.07 12.18 29.33 11.87Q28.59 11.56 28.11 11.03Q27.63 10.48 27.40 9.74Q27.16 9 27.16 8.12ZM28.65 7.35L32.52 7.35Q32.53 6.41 32.05 5.80Q31.56 5.19 30.70 5.19L30.70 5.19Q30.22 5.19 29.86 5.38Q29.49 5.57 29.23 5.87Q28.98 6.17 28.84 6.56Q28.70 6.95 28.65 7.35L28.65 7.35ZM38.52 10.98L38.32 12.15Q37.03 12.12 36.49 11.60Q35.95 11.07 35.95 9.96L35.95 9.96L35.95 0.60L37.35 0.36L37.35 9.73Q37.35 10.08 37.41 10.30Q37.47 10.53 37.60 10.66Q37.74 10.80 37.96 10.87Q38.19 10.94 38.52 10.98L38.52 10.98ZM46.96 8.10L46.96 8.10Q46.96 9.03 46.69 9.78Q46.42 10.53 45.94 11.07Q45.45 11.61 44.77 11.90Q44.10 12.20 43.30 12.20L43.30 12.20Q42.51 12.20 41.83 11.90Q41.16 11.61 40.67 11.07Q40.18 10.53 39.91 9.78Q39.64 9.03 39.64 8.10L39.64 8.10Q39.64 7.19 39.91 6.43Q40.18 5.67 40.67 5.13Q41.16 4.59 41.83 4.30Q42.51 4.00 43.30 4.00L43.30 4.00Q44.10 4.00 44.77 4.30Q45.45 4.59 45.94 5.13Q46.42 5.67 46.69 6.43Q46.96 7.19 46.96 8.10ZM45.51 8.10L45.51 8.10Q45.51 6.78 44.92 6.01Q44.32 5.24 43.30 5.24L43.30 5.24Q42.28 5.24 41.69 6.01Q41.10 6.78 41.10 8.10L41.10 8.10Q41.10 9.42 41.69 10.19Q42.28 10.96 43.30 10.96L43.30 10.96Q44.32 10.96 44.92 10.19Q45.51 9.42 45.51 8.10ZM54.34 8.12L54.34 8.12Q54.34 6.75 53.67 6.02Q52.99 5.28 51.87 5.28L51.87 5.28Q51.24 5.28 50.89 5.33Q50.53 5.37 50.32 5.43L50.32 5.43L50.32 10.35Q50.58 10.56 51.06 10.76Q51.54 10.95 52.11 10.95L52.11 10.95Q52.71 10.95 53.14 10.73Q53.56 10.52 53.83 10.13Q54.10 9.75 54.22 9.23Q54.34 8.71 54.34 8.12ZM55.80 8.12L55.80 8.12Q55.80 9 55.57 9.75Q55.33 10.50 54.88 11.04Q54.43 11.58 53.78 11.88Q53.13 12.18 52.29 12.18L52.29 12.18Q51.61 12.18 51.10 12Q50.58 11.82 50.32 11.65L50.32 11.65L50.32 14.78L48.93 14.78L48.93 4.44Q49.42 4.32 50.17 4.18Q50.91 4.04 51.88 4.04L51.88 4.04Q52.78 4.04 53.50 4.32Q54.22 4.61 54.73 5.13Q55.24 5.66 55.52 6.41Q55.80 7.17 55.80 8.12ZM57.77 12L57.77 4.43Q58.24 4.31 59.03 4.17Q59.82 4.04 60.85 4.04L60.85 4.04Q61.60 4.04 62.11 4.24Q62.63 4.44 62.97 4.83L62.97 4.83Q63.07 4.75 63.30 4.62Q63.52 4.49 63.85 4.36Q64.19 4.23 64.59 4.13Q65.00 4.04 65.46 4.04L65.46 4.04Q66.36 4.04 66.93 4.30Q67.50 4.56 67.82 5.04Q68.14 5.52 68.26 6.18Q68.37 6.84 68.37 7.62L68.37 7.62L68.37 12L66.97 12L66.97 7.92Q66.97 7.23 66.91 6.74Q66.84 6.24 66.65 5.91Q66.47 5.58 66.14 5.42Q65.82 5.27 65.31 5.27L65.31 5.27Q64.60 5.27 64.15 5.45Q63.69 5.64 63.52 5.79L63.52 5.79Q63.64 6.18 63.70 6.65Q63.77 7.11 63.77 7.62L63.77 7.62L63.77 12L62.37 12L62.37 7.92Q62.37 7.23 62.29 6.74Q62.22 6.24 62.03 5.91Q61.84 5.58 61.52 5.42Q61.20 5.27 60.70 5.27L60.70 5.27Q60.49 5.27 60.25 5.28Q60.02 5.29 59.80 5.32Q59.58 5.34 59.40 5.37Q59.22 5.40 59.16 5.42L59.16 5.42L59.16 12L57.77 12ZM70.24 8.12L70.24 8.12Q70.24 7.08 70.54 6.31Q70.84 5.54 71.34 5.03Q71.83 4.52 72.48 4.26Q73.12 4.00 73.80 4.00L73.80 4.00Q75.37 4.00 76.21 4.99Q77.05 5.97 77.05 7.98L77.05 7.98Q77.05 8.07 77.05 8.21Q77.05 8.36 77.04 8.47L77.04 8.47L71.70 8.47Q71.79 9.69 72.40 10.32Q73.02 10.95 74.32 10.95L74.32 10.95Q75.06 10.95 75.56 10.82Q76.06 10.70 76.32 10.57L76.32 10.57L76.51 11.74Q76.26 11.88 75.62 12.03Q74.98 12.18 74.17 12.18L74.17 12.18Q73.15 12.18 72.41 11.87Q71.67 11.56 71.19 11.03Q70.71 10.48 70.48 9.74Q70.24 9 70.24 8.12ZM71.73 7.35L75.60 7.35Q75.61 6.41 75.13 5.80Q74.64 5.19 73.78 5.19L73.78 5.19Q73.30 5.19 72.94 5.38Q72.57 5.57 72.31 5.87Q72.06 6.17 71.92 6.56Q71.77 6.95 71.73 7.35L71.73 7.35ZM79.06 12L79.06 4.43Q79.55 4.31 80.34 4.17Q81.13 4.04 82.17 4.04L82.17 4.04Q83.10 4.04 83.71 4.30Q84.33 4.56 84.70 5.03Q85.06 5.50 85.21 6.17Q85.36 6.83 85.36 7.62L85.36 7.62L85.36 12L83.97 12L83.97 7.92Q83.97 7.20 83.87 6.69Q83.77 6.18 83.55 5.87Q83.32 5.55 82.95 5.41Q82.57 5.27 82.02 5.27L82.02 5.27Q81.79 5.27 81.55 5.28Q81.31 5.29 81.10 5.32Q80.88 5.34 80.71 5.37Q80.53 5.40 80.46 5.42L80.46 5.42L80.46 12L79.06 12ZM88.98 1.79L88.98 4.20L91.93 4.20L91.93 5.37L88.98 5.37L88.98 8.97Q88.98 9.55 89.07 9.94Q89.16 10.32 89.34 10.54Q89.52 10.76 89.79 10.85Q90.06 10.94 90.42 10.94L90.42 10.94Q91.05 10.94 91.43 10.79Q91.81 10.65 91.96 10.59L91.96 10.59L92.23 11.74Q92.02 11.85 91.50 12.01Q90.97 12.16 90.30 12.16L90.30 12.16Q89.50 12.16 88.99 11.96Q88.47 11.76 88.16 11.36Q87.84 10.95 87.71 10.36Q87.58 9.77 87.58 8.98L87.58 8.98L87.58 2.03L88.98 1.79ZM98.56 4.20L98.56 12L97.17 12L97.17 4.20L98.56 4.20ZM97.86 2.79L97.86 2.79Q97.48 2.79 97.22 2.54Q96.96 2.29 96.96 1.88L96.96 1.88Q96.96 1.46 97.22 1.21Q97.48 0.96 97.86 0.96L97.86 0.96Q98.23 0.96 98.50 1.21Q98.76 1.46 98.76 1.88L98.76 1.88Q98.76 2.29 98.50 2.54Q98.23 2.79 97.86 2.79ZM102.78 11.00L102.78 11.00Q103.64 11.00 104.05 10.77Q104.46 10.54 104.46 10.05L104.46 10.05Q104.46 9.54 104.06 9.24Q103.65 8.94 102.72 8.56L102.72 8.56Q102.27 8.38 101.86 8.20Q101.45 8.01 101.14 7.75Q100.84 7.50 100.67 7.14Q100.48 6.78 100.48 6.25L100.48 6.25Q100.48 5.22 101.25 4.61Q102.02 4.00 103.33 4.00L103.33 4.00Q103.67 4.00 104.00 4.04Q104.33 4.08 104.61 4.13Q104.89 4.19 105.11 4.25Q105.33 4.31 105.45 4.35L105.45 4.35L105.19 5.55Q104.97 5.43 104.49 5.30Q104.01 5.17 103.33 5.17L103.33 5.17Q102.75 5.17 102.31 5.41Q101.88 5.64 101.88 6.13L101.88 6.13Q101.88 6.39 101.98 6.58Q102.08 6.78 102.28 6.94Q102.48 7.09 102.78 7.23Q103.08 7.37 103.50 7.52L103.50 7.52Q104.06 7.73 104.49 7.93Q104.92 8.13 105.23 8.40Q105.54 8.67 105.70 9.05Q105.87 9.44 105.87 9.99L105.87 9.99Q105.87 11.07 105.07 11.63Q104.27 12.18 102.78 12.18L102.78 12.18Q101.75 12.18 101.16 12.01Q100.58 11.84 100.36 11.74L100.36 11.74L100.62 10.54Q100.86 10.63 101.39 10.81Q101.91 11.00 102.78 11.00ZM118.00 8.10L118.00 8.10Q118.00 9.03 117.73 9.78Q117.47 10.53 116.98 11.07Q116.49 11.61 115.81 11.90Q115.14 12.20 114.34 12.20L114.34 12.20Q113.55 12.20 112.88 11.90Q112.20 11.61 111.71 11.07Q111.23 10.53 110.95 9.78Q110.69 9.03 110.69 8.10L110.69 8.10Q110.69 7.19 110.95 6.43Q111.23 5.67 111.71 5.13Q112.20 4.59 112.88 4.30Q113.55 4.00 114.34 4.00L114.34 4.00Q115.14 4.00 115.81 4.30Q116.49 4.59 116.98 5.13Q117.47 5.67 117.73 6.43Q118.00 7.19 118.00 8.10ZM116.55 8.10L116.55 8.10Q116.55 6.78 115.96 6.01Q115.36 5.24 114.34 5.24L114.34 5.24Q113.33 5.24 112.73 6.01Q112.14 6.78 112.14 8.10L112.14 8.10Q112.14 9.42 112.73 10.19Q113.33 10.96 114.34 10.96L114.34 10.96Q115.36 10.96 115.96 10.19Q116.55 9.42 116.55 8.10ZM126.18 4.20L126.18 11.78Q125.70 11.89 124.91 12.03Q124.13 12.16 123.09 12.16L123.09 12.16Q122.19 12.16 121.57 11.90Q120.96 11.64 120.58 11.16Q120.21 10.68 120.05 10.03Q119.88 9.38 119.88 8.58L119.88 8.58L119.88 4.20L121.27 4.20L121.27 8.28Q121.27 9.71 121.72 10.32Q122.17 10.94 123.24 10.94L123.24 10.94Q123.46 10.94 123.70 10.92Q123.94 10.90 124.16 10.88Q124.36 10.86 124.54 10.84Q124.71 10.81 124.78 10.79L124.78 10.79L124.78 4.20L126.18 4.20ZM131.46 4.04L131.46 4.04Q131.64 4.04 131.87 4.06Q132.10 4.08 132.33 4.12Q132.56 4.16 132.74 4.19Q132.93 4.23 133.02 4.26L133.02 4.26L132.78 5.48Q132.62 5.42 132.23 5.33Q131.85 5.25 131.25 5.25L131.25 5.25Q130.86 5.25 130.48 5.33Q130.09 5.42 129.97 5.45L129.97 5.45L129.97 12L128.58 12L128.58 4.53Q129.07 4.35 129.81 4.19Q130.54 4.04 131.46 4.04ZM139.14 1.79L139.14 4.20L142.09 4.20L142.09 5.37L139.14 5.37L139.14 8.97Q139.14 9.55 139.23 9.94Q139.32 10.32 139.50 10.54Q139.68 10.76 139.95 10.85Q140.22 10.94 140.58 10.94L140.58 10.94Q141.21 10.94 141.59 10.79Q141.97 10.65 142.13 10.59L142.13 10.59L142.39 11.74Q142.19 11.85 141.66 12.01Q141.13 12.16 140.46 12.16L140.46 12.16Q139.66 12.16 139.15 11.96Q138.63 11.76 138.31 11.36Q138 10.95 137.87 10.36Q137.75 9.77 137.75 8.98L137.75 8.98L137.75 2.03L139.14 1.79ZM145.26 12L143.86 12L143.86 0.60L145.26 0.36L145.26 4.35Q145.65 4.20 146.09 4.12Q146.53 4.04 146.97 4.04L146.97 4.04Q147.90 4.04 148.51 4.30Q149.13 4.56 149.50 5.03Q149.86 5.50 150.01 6.17Q150.16 6.83 150.16 7.62L150.16 7.62L150.16 12L148.77 12L148.77 7.92Q148.77 7.20 148.67 6.69Q148.57 6.18 148.35 5.87Q148.13 5.55 147.75 5.41Q147.38 5.27 146.82 5.27L146.82 5.27Q146.59 5.27 146.35 5.29Q146.11 5.33 145.90 5.36Q145.68 5.40 145.51 5.45Q145.33 5.49 145.26 5.52L145.26 5.52L145.26 12ZM153.82 4.20L153.82 12L152.43 12L152.43 4.20L153.82 4.20ZM153.12 2.79L153.12 2.79Q152.74 2.79 152.48 2.54Q152.22 2.29 152.22 1.88L152.22 1.88Q152.22 1.46 152.48 1.21Q152.74 0.96 153.12 0.96L153.12 0.96Q153.49 0.96 153.76 1.21Q154.02 1.46 154.02 1.88L154.02 1.88Q154.02 2.29 153.76 2.54Q153.49 2.79 153.12 2.79ZM156.22 12L156.22 4.43Q156.70 4.31 157.50 4.17Q158.29 4.04 159.33 4.04L159.33 4.04Q160.26 4.04 160.87 4.30Q161.49 4.56 161.86 5.03Q162.22 5.50 162.37 6.17Q162.52 6.83 162.52 7.62L162.52 7.62L162.52 12L161.13 12L161.13 7.92Q161.13 7.20 161.03 6.69Q160.93 6.18 160.71 5.87Q160.48 5.55 160.11 5.41Q159.73 5.27 159.18 5.27L159.18 5.27Q158.95 5.27 158.71 5.28Q158.47 5.29 158.26 5.32Q158.04 5.34 157.87 5.37Q157.69 5.40 157.62 5.42L157.62 5.42L157.62 12L156.22 12ZM169.72 11.55L169.72 11.22Q169.54 11.34 169.03 11.53Q168.51 11.71 167.82 11.71L167.82 11.71Q167.11 11.71 166.49 11.49Q165.87 11.27 165.41 10.79Q164.94 10.32 164.67 9.62Q164.40 8.91 164.40 7.94L164.40 7.94Q164.40 7.08 164.66 6.37Q164.91 5.66 165.40 5.14Q165.88 4.62 166.59 4.33Q167.29 4.04 168.18 4.04L168.18 4.04Q169.16 4.04 169.88 4.18Q170.61 4.32 171.10 4.44L171.10 4.44L171.10 11.40Q171.10 13.20 170.17 14.01Q169.25 14.82 167.35 14.82L167.35 14.82Q166.62 14.82 165.97 14.70Q165.31 14.58 164.83 14.41L164.83 14.41L165.09 13.20Q165.51 13.37 166.12 13.49Q166.72 13.62 167.38 13.62L167.38 13.62Q168.63 13.62 169.18 13.13Q169.72 12.63 169.72 11.55L169.72 11.55ZM169.71 9.99L169.71 5.43Q169.50 5.37 169.15 5.32Q168.79 5.27 168.19 5.27L168.19 5.27Q167.07 5.27 166.46 6Q165.85 6.74 165.85 7.95L165.85 7.95Q165.85 8.63 166.03 9.11Q166.20 9.59 166.49 9.90Q166.78 10.21 167.17 10.37Q167.55 10.52 167.95 10.52L167.95 10.52Q168.51 10.52 168.97 10.36Q169.44 10.20 169.71 9.99L169.71 9.99Z"></path></svg></svg>