<svg xmlns="http://www.w3.org/2000/svg" fill="#343f4c" viewBox="0 0 900 200">
  <rect width="15" height="184" x="230" y="8" rx="1%" />
  <path d="M389.604 131.877v12.75q-12.124 8.062-33.39 8.062-30.409 0-49.092-17.437-18.682-17.438-18.682-48 0-28.5 19.279-46.313 19.278-17.812 47.7-17.812 19.676 0 33.787 6.75v12.187q-8.745-4.312-15.502-6.112-6.758-1.763-18.683-1.763-23.055 0-38.438 14.7-15.423 14.738-15.423 38.363 0 24.75 15.224 39.562 15.185 14.813 40.426 14.813 19.676 0 32.794-9.75Zm110.505-27.75q0 21.187-12.64 34.95-12.602 13.8-34.663 13.8-21.266 0-33.787-13.875-12.522-13.875-12.522-34.875 0-20.813 12.92-35.063 12.918-14.25 33.39-14.25 22.458 0 34.86 13.95 12.442 13.988 12.442 35.363Zm-80.892 0q0 15.562 9.222 26.7 9.262 11.175 24.367 11.175 16.496 0 25.52-10.988 9.063-10.95 9.063-26.887 0-16.5-8.547-27.488-8.546-10.95-26.036-10.95-15.701 0-24.645 11.25-8.944 11.25-8.944 27.188Zm111.5.75q0 16.312 8.426 26.625 8.467 10.312 21.386 10.312 12.918 0 22.26-8.925 9.341-8.887 9.341-29.7 0-10.5-3.1-18.3-3.101-7.762-7.95-11.812-4.85-4.013-9.74-5.813-4.849-1.762-9.619-1.762-13.555 0-22.26 10.2-8.745 10.237-8.745 29.175Zm73.537-86.25v132.562H592.13v-13.875q-10.534 15.375-31.204 15.375-20.272 0-31.601-13.987-11.329-13.95-11.329-34.013 0-22.125 12.124-36.112 12.084-13.95 31.204-13.95 19.636 0 30.806 15.75v-51.75h12.124Zm102.316 116.25v11.625q-11.925 5.625-27.825 5.625-22.459 0-36.45-13.238-14.032-13.2-14.032-34.762 0-22.875 12.322-36 12.323-13.125 31.999-13.125 18.484 0 29.415 11.437 10.931 11.438 10.931 32.25 0 6.375-.795 10.125h-71.152q1.391 15.75 11.527 24.075 10.136 8.363 26.831 8.363 17.093 0 27.23-6.375Zm-34.384-69.188q-12.72 0-21.266 8.438-8.546 8.437-9.937 24.187h59.426v-4.312q0-12.938-7.632-20.625-7.672-7.688-20.59-7.688Zm109.91-9.562v9.75H759.04v85.312h-12.124V65.877h-18.483v-9.75h18.483V46.002q0-12.938 7.155-20.625 7.155-7.688 20.074-7.688 3.776 0 8.149 1.125v11.25q-4.174-1.5-8.745-1.5-5.963 0-10.216 4.388-4.293 4.425-4.293 13.237v9.938h23.055Zm96.99 0-36.57 92.625q-7.553 19.312-17.888 26.625-10.335 7.312-23.453 7.312-3.975 0-7.552-.937v-11.25q3.577.937 6.757.937 21.266 0 29.614-22.875l-41.141-92.437h13.912l13.714 31.875 19.477 45.75q1.392-4.313 17.292-45.75l12.322-31.875h13.515Z" class="wordmark-text-0"/>
  <path d="M99.849 13.02c-48.181 0-87.075 38.893-87.075 87.075s38.894 87.075 87.075 87.075 87.075-38.894 87.075-87.075S148.031 13.02 99.849 13.02zm29.218 105.07 18.19-18.189-18.383-17.995c-.968-.774-1.355-1.935-1.355-3.096 0-1.355.581-2.516 1.548-3.677.774-.967 1.935-1.354 3.096-1.354h.194c1.355 0 2.516.58 3.483 1.548l24.768 24.768-24.962 24.961c-1.741 1.742-4.837 1.742-6.772 0-.774-.774-1.355-1.935-1.355-3.096 0-1.354.388-2.709 1.548-3.87zM88.24 138.214c-.387 0-.968-.193-1.548-.387-2.322-.774-3.676-3.483-2.902-6.192l23.22-66.564c.386-1.16 1.16-2.128 2.321-2.709.581-.387 1.355-.387 1.936-.387.58 0 1.16.194 1.741.387 2.322.774 3.676 3.483 2.902 6.192l-23.22 66.37c-.58 1.936-2.515 3.29-4.45 3.29zM70.63 81.906l-17.995 18.189 18.189 18.189c.968.774 1.355 1.935 1.355 3.096 0 1.354-.581 2.515-1.548 3.483-.968.967-2.129 1.548-3.29 1.548s-2.515-.58-3.29-1.548L39.09 100.095l24.962-24.962c.773-.967 1.934-1.354 3.095-1.354 1.355 0 2.516.58 3.677 1.548.968.774 1.355 1.935 1.355 3.096 0 1.354-.581 2.515-1.549 3.483z" data-fill-palette-color="accent"/>
</svg>
