<svg xmlns="http://www.w3.org/2000/svg" version="1.1" xmlns:xlink="http://www.w3.org/1999/xlink" xmlns:svgjs="http://svgjs.dev/svgjs" width="128" height="128" viewBox="0 0 128 128"><g transform="matrix(0.8046875,0,0,0.8046875,12.760752631578946,12.760752631578946)"><svg viewBox="0 0 95 95" data-background-color="#ffffff" preserveAspectRatio="xMidYMid meet" height="128" width="128" xmlns="http://www.w3.org/2000/svg" xmlns:xlink="http://www.w3.org/1999/xlink"><g id="tight-bounds" transform="matrix(1,0,0,1,-0.24049999999999727,-0.24049999999999727)"><svg viewBox="0 0 95.481 95.481" height="95.481" width="95.481"><g><svg viewBox="0 0 95.481 95.481" height="95.481" width="95.481"><g><svg viewBox="0 0 95.481 95.481" height="95.481" width="95.481"><g id="textblocktransform"><svg viewBox="0 0 95.481 95.481" height="95.481" width="95.481" id="textblock"><g><svg viewBox="0 0 95.481 95.481" height="95.481" width="95.481"><g><svg viewBox="0 0 95.481 95.481" height="95.481" width="95.481"><g><svg xmlns="http://www.w3.org/2000/svg" xmlns:xlink="http://www.w3.org/1999/xlink" version="1.1" x="0" y="0" viewBox="5 5 90 90" style="enable-background:new 0 0 100 100;" xml:space="preserve" height="95.481" width="95.481" class="icon-icon-0" data-fill-palette-color="accent" id="icon-0"><path d="M50 5C25.1 5 5 25.1 5 50s20.1 45 45 45 45-20.1 45-45S74.9 5 50 5zM65.1 59.3l9.4-9.4L65 40.6c-0.5-0.4-0.7-1-0.7-1.6 0-0.7 0.3-1.3 0.8-1.9 0.4-0.5 1-0.7 1.6-0.7 0 0 0 0 0.1 0 0.7 0 1.3 0.3 1.8 0.8L81.4 50 68.5 62.9c-0.9 0.9-2.5 0.9-3.5 0l0 0c-0.4-0.4-0.7-1-0.7-1.6C64.3 60.6 64.5 59.9 65.1 59.3zM44 69.7c-0.2 0-0.5-0.1-0.8-0.2-1.2-0.4-1.9-1.8-1.5-3.2l12-34.4 0 0c0.2-0.6 0.6-1.1 1.2-1.4 0.3-0.2 0.7-0.2 1-0.2 0.3 0 0.6 0.1 0.9 0.2 1.2 0.4 1.9 1.8 1.5 3.2L46.3 68C46 69 45 69.7 44 69.7zM34.9 40.6L25.6 50l9.4 9.4c0.5 0.4 0.7 1 0.7 1.6 0 0.7-0.3 1.3-0.8 1.8-0.5 0.5-1.1 0.8-1.7 0.8-0.6 0-1.3-0.3-1.7-0.8L18.6 50l12.9-12.9c0.4-0.5 1-0.7 1.6-0.7 0.7 0 1.3 0.3 1.9 0.8 0.5 0.4 0.7 1 0.7 1.6C35.7 39.5 35.4 40.1 34.9 40.6z" fill="#343f4c" data-fill-palette-color="accent"></path></svg></g></svg></g></svg></g></svg></g></svg></g></svg></g><defs></defs></svg><rect width="95.481" height="95.481" fill="none" stroke="none" visibility="hidden"></rect></g></svg></g></svg>