<svg xmlns="http://www.w3.org/2000/svg" viewBox="0 0 250 250">
  <circle cx="125" cy="125" r="90" fill="#343f4c" />
  <path fill="#fff" d="M125 12.5C62.75 12.5 12.5 62.75 12.5 125S62.75 237.5 125 237.5 237.5 187.25 237.5 125 187.25 12.5 125 12.5zm37.75 135.75 23.5-23.5-23.75-23.25c-1.25-1-1.75-2.5-1.75-4 0-1.75.75-3.25 2-4.75 1-1.25 2.5-1.75 4-1.75h.25c1.75 0 3.25.75 4.5 2l32 32-32.25 32.25c-2.25 2.25-6.25 2.25-8.75 0-1-1-1.75-2.5-1.75-4 0-1.75.5-3.5 2-5zm-52.75 26c-.5 0-1.25-.25-2-.5-3-1-4.75-4.5-3.75-8l30-86c.5-1.5 1.5-2.75 3-3.5.75-.5 1.75-.5 2.5-.5s1.5.25 2.25.5c3 1 4.75 4.5 3.75 8l-30 85.75c-.75 2.5-3.25 4.25-5.75 4.25zM87.25 101.5 64 125l23.5 23.5c1.25 1 1.75 2.5 1.75 4 0 1.75-.75 3.25-2 4.5s-2.75 2-4.25 2-3.25-.75-4.25-2L46.5 125l32.25-32.25c1-1.25 2.5-1.75 4-1.75 1.75 0 3.25.75 4.75 2 1.25 1 1.75 2.5 1.75 4 0 1.75-.75 3.25-2 4.5z" />
</svg>
