<svg xmlns="http://www.w3.org/2000/svg" version="1.1" xmlns:xlink="http://www.w3.org/1999/xlink" xmlns:svgjs="http://svgjs.dev/svgjs" width="1000" height="1000" viewBox="0 0 1000 1000"><rect width="1000" height="1000" fill="#ffffff"></rect><g transform="matrix(0.7,0,0,0.7,149.57575757575756,429.7167087252974)"><svg viewBox="0 0 396 80" data-background-color="#ffffff" preserveAspectRatio="xMidYMid meet" height="202" width="1000" xmlns="http://www.w3.org/2000/svg" xmlns:xlink="http://www.w3.org/1999/xlink"><g id="tight-bounds" transform="matrix(1,0,0,1,0.2400000000000091,-0.23576165504800883)"><svg viewBox="0 0 395.52 80.47152331009605" height="80.47152331009605" width="395.52"><g><svg viewBox="0 0 578.4883329470536 117.69780888290713" height="80.47152331009605" width="395.52"><g><rect width="10.561303352437148" height="117.69780888290713" x="144.75963861965008" y="0" fill="#000000" opacity="1" stroke-width="0" stroke="transparent" fill-opacity="1" class="rect-r$-0" data-fill-palette-color="primary" rx="1%" id="r$-0" data-palette-color="#3f566c"></rect></g><g transform="matrix(1,0,0,1,182.96833294705357,0.29278061911170283)"><svg viewBox="0 0 395.52 117.11224764468372" height="117.11224764468372" width="395.52"><g id="textblocktransform"><svg viewBox="0 0 395.52 117.11224764468372" height="117.11224764468372" width="395.52" id="textblock"><g><svg viewBox="0 0 395.52 117.11224764468372" height="117.11224764468372" width="395.52"><g transform="matrix(1,0,0,1,0,0)"><svg width="395.52" viewBox="2.5 -35.6 148.59 44" height="117.11224764468372" data-palette-color="#3f566c"><path d="M27.95-5.15L27.95-1.75Q24.9 0.4 19.55 0.4L19.55 0.4Q11.9 0.4 7.2-4.25 2.5-8.9 2.5-17.05L2.5-17.05Q2.5-24.65 7.35-29.4 12.2-34.15 19.35-34.15L19.35-34.15Q24.3-34.15 27.85-32.35L27.85-32.35 27.85-29.1Q25.65-30.25 23.95-30.73 22.25-31.2 19.25-31.2L19.25-31.2Q13.45-31.2 9.58-27.28 5.7-23.35 5.7-17.05L5.7-17.05Q5.7-10.45 9.53-6.5 13.35-2.55 19.7-2.55L19.7-2.55Q24.65-2.55 27.95-5.15L27.95-5.15ZM55.75-12.55L55.75-12.55Q55.75-6.9 52.57-3.23 49.4 0.45 43.85 0.45L43.85 0.45Q38.5 0.45 35.35-3.25 32.2-6.95 32.2-12.55L32.2-12.55Q32.2-18.1 35.45-21.9 38.7-25.7 43.85-25.7L43.85-25.7Q49.5-25.7 52.62-21.98 55.75-18.25 55.75-12.55ZM35.4-12.55L35.4-12.55Q35.4-8.4 37.72-5.43 40.05-2.45 43.85-2.45L43.85-2.45Q48-2.45 50.27-5.38 52.55-8.3 52.55-12.55L52.55-12.55Q52.55-16.95 50.4-19.88 48.25-22.8 43.85-22.8L43.85-22.8Q39.9-22.8 37.65-19.8 35.4-16.8 35.4-12.55ZM63.45-12.35L63.45-12.35Q63.45-8 65.57-5.25 67.7-2.5 70.95-2.5 74.2-2.5 76.55-4.88 78.9-7.25 78.9-12.8L78.9-12.8Q78.9-15.6 78.12-17.68 77.34-19.75 76.12-20.83 74.9-21.9 73.67-22.38 72.45-22.85 71.25-22.85L71.25-22.85Q67.84-22.85 65.65-20.13 63.45-17.4 63.45-12.35ZM81.95-35.35L81.95 0 78.9 0 78.9-3.7Q76.25 0.4 71.05 0.4L71.05 0.4Q65.95 0.4 63.1-3.33 60.25-7.05 60.25-12.4L60.25-12.4Q60.25-18.3 63.3-22.03 66.34-25.75 71.15-25.75L71.15-25.75Q76.09-25.75 78.9-21.55L78.9-21.55 78.9-35.35 81.95-35.35ZM107.69-4.35L107.69-1.25Q104.69 0.25 100.69 0.25L100.69 0.25Q95.04 0.25 91.52-3.28 87.99-6.8 87.99-12.55L87.99-12.55Q87.99-18.65 91.09-22.15 94.19-25.65 99.14-25.65L99.14-25.65Q103.79-25.65 106.54-22.6 109.29-19.55 109.29-14L109.29-14Q109.29-12.3 109.09-11.3L109.09-11.3 91.19-11.3Q91.54-7.1 94.09-4.88 96.64-2.65 100.84-2.65L100.84-2.65Q105.14-2.65 107.69-4.35L107.69-4.35ZM99.04-22.8L99.04-22.8Q95.84-22.8 93.69-20.55 91.54-18.3 91.19-14.1L91.19-14.1 106.14-14.1 106.14-15.25Q106.14-18.7 104.22-20.75 102.29-22.8 99.04-22.8ZM126.69-25.35L126.69-22.75 120.89-22.75 120.89 0 117.84 0 117.84-22.75 113.19-22.75 113.19-25.35 117.84-25.35 117.84-28.05Q117.84-31.5 119.64-33.55 121.44-35.6 124.69-35.6L124.69-35.6Q125.64-35.6 126.74-35.3L126.74-35.3 126.74-32.3Q125.69-32.7 124.54-32.7L124.54-32.7Q123.04-32.7 121.97-31.53 120.89-30.35 120.89-28L120.89-28 120.89-25.35 126.69-25.35ZM151.09-25.35L141.89-0.65Q139.99 4.5 137.39 6.45 134.79 8.4 131.49 8.4L131.49 8.4Q130.49 8.4 129.59 8.15L129.59 8.15 129.59 5.15Q130.49 5.4 131.29 5.4L131.29 5.4Q136.64 5.4 138.74-0.7L138.74-0.7 128.39-25.35 131.89-25.35 135.34-16.85 140.24-4.65Q140.59-5.8 144.59-16.85L144.59-16.85 147.69-25.35 151.09-25.35Z" opacity="1" transform="matrix(1,0,0,1,0,0)" fill="#000000" class="wordmark-text-0" data-fill-palette-color="primary" id="text-0"></path></svg></g></svg></g></svg></g></svg></g><g transform="matrix(1,0,0,1,0,0.29278061911170283)"><svg viewBox="0 0 117.11224764468372 117.11224764468372" height="117.11224764468372" width="117.11224764468372"><g><svg xmlns="http://www.w3.org/2000/svg" xmlns:xlink="http://www.w3.org/1999/xlink" version="1.1" x="0" y="0" viewBox="5 5 90 90" style="enable-background:new 0 0 100 100;" xml:space="preserve" height="117.11224764468372" width="117.11224764468372" class="icon-icon-0" data-fill-palette-color="accent" id="icon-0"><path d="M50 5C25.1 5 5 25.1 5 50s20.1 45 45 45 45-20.1 45-45S74.9 5 50 5zM65.1 59.3l9.4-9.4L65 40.6c-0.5-0.4-0.7-1-0.7-1.6 0-0.7 0.3-1.3 0.8-1.9 0.4-0.5 1-0.7 1.6-0.7 0 0 0 0 0.1 0 0.7 0 1.3 0.3 1.8 0.8L81.4 50 68.5 62.9c-0.9 0.9-2.5 0.9-3.5 0l0 0c-0.4-0.4-0.7-1-0.7-1.6C64.3 60.6 64.5 59.9 65.1 59.3zM44 69.7c-0.2 0-0.5-0.1-0.8-0.2-1.2-0.4-1.9-1.8-1.5-3.2l12-34.4 0 0c0.2-0.6 0.6-1.1 1.2-1.4 0.3-0.2 0.7-0.2 1-0.2 0.3 0 0.6 0.1 0.9 0.2 1.2 0.4 1.9 1.8 1.5 3.2L46.3 68C46 69 45 69.7 44 69.7zM34.9 40.6L25.6 50l9.4 9.4c0.5 0.4 0.7 1 0.7 1.6 0 0.7-0.3 1.3-0.8 1.8-0.5 0.5-1.1 0.8-1.7 0.8-0.6 0-1.3-0.3-1.7-0.8L18.6 50l12.9-12.9c0.4-0.5 1-0.7 1.6-0.7 0.7 0 1.3 0.3 1.9 0.8 0.5 0.4 0.7 1 0.7 1.6C35.7 39.5 35.4 40.1 34.9 40.6z" fill="#000000" data-fill-palette-color="accent"></path></svg></g></svg></g></svg></g><defs></defs></svg><rect width="395.52" height="80.47152331009605" fill="none" stroke="none" visibility="hidden"></rect></g></svg></g></svg>