<svg xmlns="http://www.w3.org/2000/svg" version="1.1" xmlns:xlink="http://www.w3.org/1999/xlink" xmlns:svgjs="http://svgjs.dev/svgjs" width="1000" height="1000" viewBox="0 0 1000 1000"><rect width="1000" height="1000" fill="#ffffff"></rect><g transform="matrix(0.7,0,0,0.7,149.5757601733086,422.40742220024595)"><svg viewBox="0 0 396 88" data-background-color="#ffffff" preserveAspectRatio="xMidYMid meet" height="222" width="1000" xmlns="http://www.w3.org/2000/svg" xmlns:xlink="http://www.w3.org/1999/xlink"><g id="tight-bounds" transform="matrix(1,0,0,1,0.23999853052828257,-0.06083110438638073)"><svg viewBox="0 0 395.52 88.12166220877278" height="88.12166220877278" width="395.52"><g><svg viewBox="0 0 548.6193982069225 122.2321331158238" height="88.12166220877278" width="395.52"><g><rect width="5.047689810968222" height="122.2321331158238" x="134.83786072326262" y="0" fill="#3f566c" opacity="1" stroke-width="0" stroke="transparent" fill-opacity="1" class="rect-o-0" data-fill-palette-color="primary" rx="1%" id="o-0" data-palette-color="#3f566c"></rect></g><g transform="matrix(1,0,0,1,153.09939820692253,0.304060032626424)"><svg viewBox="0 0 395.52 121.62401305057095" height="121.62401305057095" width="395.52"><g><svg viewBox="0 0 395.52 121.62401305057095" height="121.62401305057095" width="395.52"><g><svg viewBox="0 0 395.52 121.62401305057095" height="121.62401305057095" width="395.52"><g transform="matrix(1,0,0,1,0,0)"><svg width="395.52" viewBox="2.450000524520874 -33.95000076293945 245.1999969482422 72.05000305175781" height="121.62401305057095" data-palette-color="#3f566c"><svg></svg><svg></svg><g class="undefined-text-0" data-fill-palette-color="primary" id="text-0"><path xmlns="http://www.w3.org/2000/svg" d="M23.85-9.45v0c0 3-1.073 5.393-3.22 7.18-2.153 1.78-4.98 2.67-8.48 2.67v0c-3.8 0-6.95-0.717-9.45-2.15v0-6.45c2.867 2.067 6 3.1 9.4 3.1v0c1.533 0 2.767-0.377 3.7-1.13 0.933-0.747 1.4-1.753 1.4-3.02v0c0-0.6-0.117-1.133-0.35-1.6-0.233-0.467-0.707-0.933-1.42-1.4-0.72-0.467-1.27-0.8-1.65-1-0.387-0.2-1.18-0.567-2.38-1.1v0c-0.333-0.167-0.583-0.283-0.75-0.35v0c-1.233-0.567-2.233-1.077-3-1.53-0.767-0.447-1.6-1.053-2.5-1.82-0.9-0.767-1.573-1.683-2.02-2.75-0.453-1.067-0.68-2.283-0.68-3.65v0c0-2.867 1.06-5.167 3.18-6.9 2.113-1.733 4.92-2.6 8.42-2.6v0c3.167 0 5.9 0.55 8.2 1.65v0 6.1c-2.5-1.5-5.167-2.25-8-2.25v0c-1.567 0-2.79 0.35-3.67 1.05-0.887 0.7-1.33 1.6-1.33 2.7 0 1.1 0.477 2.007 1.43 2.72 0.947 0.72 2.37 1.513 4.27 2.38v0c1.333 0.6 2.417 1.123 3.25 1.57 0.833 0.453 1.743 1.08 2.73 1.88 0.98 0.8 1.713 1.757 2.2 2.87 0.48 1.12 0.72 2.397 0.72 3.83zM55.55-33.7v20.75c0 4.367-1.173 7.69-3.52 9.97-2.353 2.287-5.58 3.43-9.68 3.43v0c-4 0-7.19-1.127-9.57-3.38-2.387-2.247-3.58-5.47-3.58-9.67v0-21.1h6.3v21.05c0 2.567 0.633 4.423 1.9 5.57 1.267 1.153 2.917 1.73 4.95 1.73v0c4.6 0 6.9-2.517 6.9-7.55v0-20.8zM69.05-13.15l-1 13.15h-6.3l2.7-33.7h7.2l4.6 12.25c0.8 2.067 1.55 4.123 2.25 6.17 0.7 2.053 1.2 3.58 1.5 4.58v0l0.45 1.55c1.033-3.467 2.467-7.567 4.3-12.3v0l4.7-12.25h7.2l3.3 33.7h-6.3l-1.2-13.15-0.9-11.8c-1.2 3.433-2.633 7.367-4.3 11.8v0l-4.7 12.65h-4.3l-4.6-12.65-3.95-11.65c0 1.633-0.217 5.517-0.65 11.65zM113.05-13.15l-1 13.15h-6.3l2.7-33.7h7.2l4.6 12.25c0.8 2.067 1.55 4.123 2.25 6.17 0.7 2.053 1.2 3.58 1.5 4.58v0l0.45 1.55c1.033-3.467 2.467-7.567 4.3-12.3v0l4.7-12.25h7.2l3.3 33.7h-6.3l-1.2-13.15-0.9-11.8c-1.2 3.433-2.633 7.367-4.3 11.8v0l-4.7 12.65h-4.3l-4.6-12.65-3.95-11.65c0 1.633-0.217 5.517-0.65 11.65zM157.05-33.7v33.7h-6.3v-33.7zM185.7-33.7v5.2h-8.55v28.5h-6.35v-28.5h-8.55v-5.2z" fill="#3f566c" fill-rule="nonzero" stroke="none" stroke-width="1" stroke-linecap="butt" stroke-linejoin="miter" stroke-miterlimit="10" stroke-dasharray="" stroke-dashoffset="0" font-family="none" font-weight="none" font-size="none" text-anchor="none" style="mix-blend-mode: normal" data-fill-palette-color="primary" opacity="1"></path><path xmlns="http://www.w3.org/2000/svg" d="M23.85 28.25v0c0 3-1.073 5.393-3.22 7.18-2.153 1.78-4.98 2.67-8.48 2.67v0c-3.8 0-6.95-0.717-9.45-2.15v0-6.45c2.867 2.067 6 3.1 9.4 3.1v0c1.533 0 2.767-0.377 3.7-1.13 0.933-0.747 1.4-1.753 1.4-3.02v0c0-0.6-0.117-1.133-0.35-1.6-0.233-0.467-0.707-0.933-1.42-1.4-0.72-0.467-1.27-0.8-1.65-1-0.387-0.2-1.18-0.567-2.38-1.1v0c-0.333-0.167-0.583-0.283-0.75-0.35v0c-1.233-0.567-2.233-1.077-3-1.53-0.767-0.447-1.6-1.053-2.5-1.82-0.9-0.767-1.573-1.683-2.02-2.75-0.453-1.067-0.68-2.283-0.68-3.65v0c0-2.867 1.06-5.167 3.18-6.9 2.113-1.733 4.92-2.6 8.42-2.6v0c3.167 0 5.9 0.55 8.2 1.65v0 6.1c-2.5-1.5-5.167-2.25-8-2.25v0c-1.567 0-2.79 0.35-3.67 1.05-0.887 0.7-1.33 1.6-1.33 2.7 0 1.1 0.477 2.007 1.43 2.72 0.947 0.72 2.37 1.513 4.27 2.38v0c1.333 0.6 2.417 1.123 3.25 1.57 0.833 0.453 1.743 1.08 2.73 1.88 0.98 0.8 1.713 1.757 2.2 2.87 0.48 1.12 0.72 2.397 0.72 3.83zM59.9 20.75v0c0 5.2-1.44 9.383-4.32 12.55-2.887 3.167-6.747 4.75-11.58 4.75-4.833 0-8.7-1.583-11.6-4.75-2.9-3.167-4.35-7.35-4.35-12.55v0c0-5.233 1.443-9.433 4.33-12.6 2.88-3.167 6.737-4.75 11.57-4.75v0c4.9 0 8.783 1.573 11.65 4.72 2.867 3.153 4.3 7.363 4.3 12.63zM34.8 20.75v0c0 3.533 0.833 6.333 2.5 8.4 1.667 2.067 3.9 3.1 6.7 3.1v0c2.833 0 5.067-1.027 6.7-3.08 1.633-2.047 2.45-4.853 2.45-8.42 0-3.567-0.817-6.383-2.45-8.45-1.633-2.067-3.883-3.1-6.75-3.1v0c-2.833 0-5.067 1.033-6.7 3.1-1.633 2.067-2.45 4.883-2.45 8.45zM83.6 19.1v5.15h-11.7v13.45h-6.35v-33.7h19.75v5.15h-13.4v9.95zM111.75 4v5.2h-8.55v28.5h-6.35v-28.5h-8.55v-5.2zM133.65 27.05l-3.15 10.65h-7.25l-9-33.7h6.65l3.15 12.45c0.533 2.233 1.067 4.55 1.6 6.95 0.533 2.4 0.933 4.233 1.2 5.5v0l0.4 1.95c1.067-4.2 2.367-9 3.9-14.4v0l3.4-11.95h5.1l3.45 11.95 4 14.5c0.833-4.633 1.867-9.483 3.1-14.55v0l3.05-12.4h6.4l-8.6 33.7h-7.3l-3.05-10.65c-0.833-2.833-1.543-5.333-2.13-7.5-0.58-2.167-0.97-3.617-1.17-4.35v0l-0.25-1.15c-0.467 2.333-1.633 6.667-3.5 13zM173.4 23.45v0l-0.45 1.45h9.5l-0.45-1.5c-1.133-3.6-2.06-6.627-2.78-9.08-0.713-2.447-1.153-3.987-1.32-4.62v0l-0.2-1c-0.3 1.667-1.733 6.583-4.3 14.75zM171.3 30.05l-2.4 7.65h-6.6l11.4-33.7h8.15l11.4 33.7h-6.8l-2.4-7.65zM208.5 9.2v0h-4.1v11h4.2c1.933 0 3.383-0.493 4.35-1.48 0.967-0.98 1.45-2.353 1.45-4.12v0c0-1.733-0.507-3.067-1.52-4-1.02-0.933-2.48-1.4-4.38-1.4zM204.4 25.4v12.3h-6.3v-33.7h10.4c3.833 0 6.843 0.967 9.03 2.9 2.18 1.933 3.27 4.517 3.27 7.75v0c-0.033 2.4-0.617 4.423-1.75 6.07-1.133 1.653-2.683 2.88-4.65 3.68v0l8.65 13.3h-7.55l-7.65-12.3zM247.65 32.55v5.15h-20.1v-33.7h19.9v5.15h-13.55v9.15h12.05v5.1h-12.05v9.15z" fill="#3f566c" fill-rule="nonzero" stroke="none" stroke-width="1" stroke-linecap="butt" stroke-linejoin="miter" stroke-miterlimit="10" stroke-dasharray="" stroke-dashoffset="0" font-family="none" font-weight="none" font-size="none" text-anchor="none" style="mix-blend-mode: normal" data-fill-palette-color="primary" opacity="1"></path></g></svg></g></svg></g></svg></g></svg></g><g transform="matrix(1,0,0,1,0,0.304060032626424)"><svg viewBox="0 0 121.62401305057095 121.62401305057095" height="121.62401305057095" width="121.62401305057095"><g><svg xmlns="http://www.w3.org/2000/svg" xmlns:xlink="http://www.w3.org/1999/xlink" version="1.1" x="0" y="0" viewBox="2.5 2.5 95 95" enable-background="new 0 0 100 100" xml:space="preserve" height="121.62401305057095" width="121.62401305057095" class="icon-icon-0" data-fill-palette-color="accent" id="icon-0"><g fill="#242e3c" data-fill-palette-color="accent"><path fill="none" d="M50 6.334C25.922 6.334 6.334 25.922 6.334 50c0 9.156 2.838 17.658 7.672 24.686L39.89 48.8V32.29c-0.023-0.12-0.037-0.244-0.037-0.371V20.791c0-1.059 0.858-1.917 1.917-1.917h13.356c1.059 0 1.917 0.858 1.917 1.917v11.128c0 1.059-0.858 1.917-1.917 1.917h-11.4v14.965l4.572 4.572 18.759-18.76c0.718-0.719 1.991-0.719 2.71 0l23.187 23.188c0.459-2.533 0.712-5.137 0.712-7.801C93.666 25.923 74.078 6.334 50 6.334z"></path><path fill="none" d="M51.007 56.084l4.485 4.484c0.749 0.748 0.749 1.961 0 2.71-0.748 0.749-1.961 0.749-2.71 0L41.808 52.305 16.334 77.779C24.35 87.476 36.465 93.666 50 93.666c19.847 0 36.632-13.314 41.922-31.476L68.411 38.68 51.007 56.084z"></path><rect x="43.725" y="22.708" fill="none" width="9.483" height="7.295"></rect><path d="M13.005 79.745C21.719 90.561 35.061 97.5 50 97.5c26.192 0 47.5-21.308 47.5-47.5C97.5 23.809 76.192 2.5 50 2.5 23.809 2.5 2.5 23.809 2.5 50c0 10.416 3.379 20.053 9.085 27.891L13.005 79.745zM50 93.666c-13.535 0-25.65-6.19-33.666-15.887l25.474-25.474 10.974 10.973c0.749 0.749 1.962 0.749 2.71 0 0.749-0.749 0.749-1.962 0-2.71l-4.485-4.484L68.411 38.68l23.511 23.51C86.632 80.352 69.847 93.666 50 93.666z" fill="#242e3c" data-fill-palette-color="accent"></path></g></svg></g></svg></g></svg></g><defs></defs></svg><rect width="395.52" height="88.12166220877278" fill="none" stroke="none" visibility="hidden"></rect></g></svg></g></svg>